<?xml version="1.0" encoding="UTF-8"?>
<svg width="40" height="63" viewBox="0 0 40 63" fill="none" xmlns="http://www.w3.org/2000/svg">
<rect x="8.52454" y="4.85242" width="25.5738" height="51.1475" rx="2" fill="white" stroke="#236AC9" stroke-width="2"/>
<rect x="9.37695" y="5.70496" width="23.8689" height="42.623" rx="1" fill="#F2FAFF"/>
<rect x="16.1967" y="4" width="10.2295" height="3.40984" rx="1" fill="#236AC9"/>
<path d="M3 21.1968C3 20.6445 3.44772 20.1968 4 20.1968H27.5738C28.1261 20.1968 28.5738 20.6445 28.5738 21.1968V32.5968C28.5738 33.1491 28.1261 33.5968 27.5738 33.5968H22.059C21.2331 33.5968 20.7633 34.5412 21.2613 35.2L24.4422 39.4067C25.1204 40.3037 24.0309 41.4642 23.0929 40.844L12.3843 33.7627C12.2207 33.6545 12.0289 33.5968 11.8328 33.5968H4C3.44772 33.5968 3 33.1491 3 32.5968V21.1968Z" fill="white" stroke="#236AC9" stroke-width="2"/>
<rect x="5.55737" y="25.3115" width="2.55738" height="3.40984" rx="1.27869" fill="#2EA76D"/>
<rect x="8.96729" y="25.3115" width="2.55738" height="3.40984" rx="1.27869" fill="#2EA76D"/>
<rect x="12.3771" y="25.3115" width="2.55738" height="3.40984" rx="1.27869" fill="#2EA76D"/>
<rect x="15.7869" y="25.3115" width="2.55738" height="3.40984" rx="1.27869" fill="#2EA76D"/>
<rect x="19.1967" y="25.3115" width="2.55738" height="3.40984" rx="1.27869" fill="#2EA76D"/>
<rect x="22.6066" y="25.3115" width="2.55738" height="3.40984" rx="1.27869" fill="#2EA76D"/>
</svg>